PathFileType	4	(X/Y/Z)	Patient4_TMGait_0pt8_01_right_43.trc.trc
DataRate	CameraRate	NumFrames	NumMarkers	Units	OrigDataRate	OrigDataStartFrame	OrigNumFrames
85.365853658537	85.365853658537	5	33	mm	85.365853658537	89	       141
Frame#	Time	Sacral			L.Shoulder			Chest			R.Shoulder			Neck			R.ASIS			L.ASIS			R.Thigh.Superior			R.Thigh.Lateral			R.Thigh.Inferior			R.Patella			L.Thigh.Superior			L.Thigh.Lateral			L.Thigh.Inferior			L.Patella			L.Shank.Superior			L.Shank.Lateral			L.Shank.Inferior			R.Shank.Superior			R.Shank.Lateral			R.Shank.Inferior			R.Heel			R.Midfoot.Superior			R.Midfoot.Lateral			R.Toe			L.Heel			L.Midfoot.Lateral			L.Midfoot.Superior			L.Toe			L.Elbow			L.Wrist			R.Elbow			R.Wrist			
		X1	Y1	Z1	X2	Y2	Z2	X3	Y3	Z3	X4	Y4	Z4	X5	Y5	Z5	X6	Y6	Z6	X7	Y7	Z7	X8	Y8	Z8	X9	Y9	Z9	X10	Y10	Z10	X11	Y11	Z11	X12	Y12	Z12	X13	Y13	Z13	X14	Y14	Z14	X15	Y15	Z15	X16	Y16	Z16	X17	Y17	Z17	X18	Y18	Z18	X19	Y19	Z19	X20	Y20	Z20	X21	Y21	Z21	X22	Y22	Z22	X23	Y23	Z23	X24	Y24	Z24	X25	Y25	Z25	X26	Y26	Z26	X27	Y27	Z27	X28	Y28	Z28	X29	Y29	Z29	X30	Y30	Z30	X31	Y31	Z31	X32	Y32	Z32	X33	Y33	Z33	

89	49.320857142857	945.420861712476	1006.272147062663	471.898062200312	1092.150871390192	1431.828809555328	280.748984560401	1215.173645448561	1366.279097680834	429.099805190671	1150.116676105540	1441.134759750718	610.407224738038	1091.352748972294	1493.002240601928	436.406305255190	1175.442587766063	936.820165931067	571.249366963224	1147.994960322220	960.062077404157	299.824200919627	1205.178239467707	728.856589567607	555.191734301660	1120.794338538047	623.292323300445	623.143059431702	1199.882108547532	559.564236444025	550.840454259006	1182.272079791226	449.120706347502	573.182196860578	1217.183913976969	762.707295747416	332.326134630811	1139.928218234250	636.182801406084	277.337565970337	1235.254809897516	569.029006618442	338.882066463637	1243.727029119493	500.071701517540	348.926237008561	1223.587384148550	426.114489719510	343.187725113733	1144.398316477238	302.082589892157	299.427125632350	1210.206484964097	198.357545528303	369.818122054062	1095.844219290897	390.049759872756	577.052803852240	969.088556439942	367.750897637729	634.719940039982	941.305169707165	261.337744195349	585.331859355506	734.442244048390	230.088862451491	553.152837501951	890.977456876427	144.511202651007	597.315640078597	780.860522911383	159.050605428606	625.321508396692	935.043342811317	30.513853933797	617.237052336904	1096.849851595525	38.594513913664	421.554746613481	1166.863328068748	36.538190163603	337.145804038820	1250.459923821569	98.017414618311	360.502874862046	1377.783523065231	47.693960783094	326.541418386107	992.018742661627	1088.535727157826	188.988826798204	994.972724682974	828.668348431158	197.360484269057	1240.643655753530	1106.480517516214	723.258045268946	1482.869700321953	1140.693727969085	661.746435737301	
90	49.332571428571	944.595572579450	1006.762609851143	469.516572873981	1092.960501384945	1433.014808883239	278.981418674040	1214.862105290509	1367.323542997813	428.155694167466	1148.390107827052	1441.615471820027	609.271705575742	1091.004463491079	1493.962225865857	434.781353702130	1174.824347077026	938.018856519591	569.560523933247	1147.653196509965	960.958746657623	297.980452257660	1210.466425063167	732.311704809911	554.255079557492	1129.109938614812	625.028160607152	622.512463443278	1210.425505070361	562.885202591004	550.630910273850	1194.762297422063	451.409482713023	573.110672846773	1214.907468152615	761.698596705923	329.393148188546	1135.643032051533	636.255332141833	275.756378534044	1230.298287538117	568.105283108479	336.956522313335	1237.986652977084	499.220073640829	347.234182304103	1217.255595108443	425.451179780460	341.888206806989	1136.941658658932	301.961293744671	298.644509764287	1201.940033574296	197.904094925663	369.263069117521	1107.072813936559	392.812801935228	576.911412866365	979.407831016009	373.821048429697	634.046793348236	949.351984601357	267.872132649359	585.323545750085	742.789961643710	243.662124387995	552.293320315788	895.666180229281	151.608427000401	597.773242037180	785.804277651007	170.664102255508	624.903940094487	934.575932071314	32.376137300612	618.523624368993	1087.427506126449	38.598834501202	421.500218214939	1157.431539321438	36.478113689745	337.111670893721	1241.188771314908	97.845083038608	360.428013978603	1368.478120534300	47.103864429045	326.434830545984	1000.808169852346	1087.440259571720	184.120632306494	1017.094277992865	827.712520861494	191.599975254351	1226.830120762303	1102.934447979024	721.877224097156	1471.744912468759	1121.570012832042	663.232662918674	
91	49.344285714286	943.513985493016	1007.190019869525	467.228923729345	1093.729019470779	1434.035960187547	277.314238807394	1214.438681773647	1368.195649954256	427.361506865197	1146.545024241286	1441.921529695347	608.283401837181	1090.636316561686	1494.822203071152	433.272079783355	1173.965188321772	939.125998706033	568.019250415429	1147.100670636436	961.741299330506	296.238615552177	1215.368276804948	735.981138249017	553.214221832845	1137.227389863858	627.134951466238	621.926185944754	1220.553852424785	566.704358083020	550.293292300553	1207.152225566468	454.310237608345	572.860853395530	1212.434057351740	760.731864952194	326.752392771254	1131.300538847355	636.364848250683	274.297257914440	1225.209441301056	567.211016090189	335.208473665812	1232.089270158869	498.384071735584	345.732395104922	1210.827303034795	424.815692303865	340.726665503900	1129.473009944980	301.867151235722	297.896087343387	1193.663587812435	197.485282746683	368.761942358881	1118.480348740259	395.937589712626	576.705590758776	990.144933610992	379.617630476200	633.394948175940	958.241925242349	274.094806254792	585.226292076454	752.088668491060	255.322107076947	551.410030150740	901.854962973612	158.482131310936	598.110349580727	792.355920777031	181.090622691836	624.545180475549	936.709793634029	35.229230960089	619.973568579384	1078.025398269465	38.623093715052	421.432738004127	1148.022371326467	36.428620709659	337.067989237625	1231.931987346640	97.686459430613	360.346677499843	1359.176554116815	46.556587971115	326.328030390514	1010.046593599358	1086.395440829846	179.201242943732	1039.945563821507	827.497100143720	185.885215178514	1212.921879069415	1099.698276711354	720.471520119101	1459.644226849694	1101.083588640387	665.014468118265	
92	49.356000000000	942.215190084671	1007.614623135106	465.020688941390	1094.440749832226	1434.942671952635	275.758810796451	1213.908002139158	1368.937579493818	426.707949888899	1144.605453469723	1442.109256981301	607.422754606109	1090.251170120987	1495.614882850590	431.885067017371	1172.857482303119	940.185268008400	566.589854256850	1146.374991534428	962.449088139602	294.595375124695	1219.820973471826	739.883543701472	551.993323733198	1145.134279350532	629.630517319125	621.356832661625	1230.231654765580	571.038055042015	549.782389884786	1219.413062757628	457.835582536591	572.466579372226	1209.822973773152	759.830681688748	324.407139952324	1126.887333167072	636.516123014278	272.982472147469	1219.989046313652	566.344106793762	333.655094058168	1226.036185338916	497.573403137388	344.460842420396	1204.298747750995	424.220537620593	339.727988133638	1121.979041804437	301.814429220759	297.211780779556	1185.363447245963	197.110122403421	368.332498904424	1130.059516124269	399.395933117319	576.461261863969	1001.253552286428	385.058975572923	632.795125398709	968.000856359017	279.865582009065	585.094650598236	762.248045444315	264.834694312527	550.593015551765	909.631911107238	164.867478137241	598.346532157609	800.523701331862	190.033783674576	624.305626391718	941.647590465630	38.888552226604	621.528220425975	1068.636207601072	38.662705859741	421.356196198221	1138.628326326069	36.393485654098	337.017689063135	1222.674208603678	97.549506468372	360.264152584500	1349.865978971461	46.082349379694	326.222760811368	1019.777250983340	1085.485966155936	174.270531362464	1063.410789397193	828.151664213788	180.280665474666	1199.092391262867	1096.857778189518	719.074473150067	1446.404694516972	1079.417950293838	667.075599092841	
93	49.367714285714	940.744292937310	1008.083663141761	462.878390680671	1095.090216908402	1435.786461227541	274.322143638639	1213.278448748915	1369.590235923027	426.184726168176	1142.589846304196	1442.231726033324	606.667144160654	1089.849778101647	1496.368558549565	430.622196602520	1171.500139248764	941.236752865739	565.244827372997	1145.519104438772	963.113132577011	293.059102234935	1223.795004518893	744.033566726474	550.556257627295	1152.825203445579	632.518719249153	620.783319142852	1239.446221707788	575.882628630483	549.073676854561	1231.515246560338	461.981381209271	571.951087016153	1207.115281910618	758.996011889335	322.357289193374	1122.382534450749	636.708283611337	271.820583881923	1214.623191265244	565.497338211211	332.309330525363	1219.812754183056	496.792378902464	343.441988800574	1197.652390244674	423.673149313690	338.906092796852	1114.438832495733	301.808099314758	296.611318441886	1177.021632046032	196.782930603724	367.985531101217	1141.803764128669	403.150957775733	576.194005575513	1012.697647991084	390.065955303267	632.279057016064	978.643023961132	285.056762500668	584.981461949525	773.209347155179	272.067616857170	549.942919892026	919.051018254789	170.523009205015	598.522804657513	810.292916786067	197.265214402413	624.246576939387	949.472168170971	43.042702783895	623.120592175375	1059.251139832507	38.712413693768	421.275934188240	1129.240565672354	36.373328766362	336.964561743398	1213.402344015302	97.436984921167	360.185643601491	1340.536715298961	45.694584705084	326.121665934284	1030.012093053215	1084.807605254753	169.368987341856	1087.362819020256	829.795864627423	174.849839837034	1185.509645821933	1094.480585427863	717.720627683648	1431.861471962664	1056.819474738627	669.396935755507	
